<svg xmlns="http://www.w3.org/2000/svg" xmlns:xlink="http://www.w3.org/1999/xlink" width="0" height="0" style="position:absolute"><symbol viewBox="0 0 135 42" id="shape-appstore" xmlns="http://www.w3.org/2000/svg"><path d="M130.2 42H4.73C2.12 42 0 39.77 0 37.03V4.96C0 2.23 2.12 0 4.73 0H130.2c2.6 0 4.8 2.23 4.8 4.96v32.07c0 2.74-2.2 4.97-4.8 4.97z" fill="#a6a6a6"/><path d="M134.14 37.1c0 2.22-1.71 4.02-3.83 4.02H4.84C2.72 41.12 1 39.32 1 37.1V5.03C1 2.81 2.72 1 4.84 1h125.47c2.12 0 3.83 1.81 3.83 4.03z"/><path d="M30.34 20.78c-.03-3.38 2.64-5.03 2.76-5.1-1.51-2.32-3.86-2.63-4.68-2.66-1.97-.22-3.87 1.24-4.88 1.24-1.02 0-2.56-1.22-4.22-1.18-2.14.03-4.15 1.33-5.24 3.35-2.27 4.12-.58 10.18 1.59 13.51 1.09 1.63 2.36 3.45 4.02 3.38 1.62-.07 2.23-1.08 4.19-1.08 1.94 0 2.51 1.08 4.21 1.04 1.74-.03 2.84-1.64 3.89-3.28 1.25-1.87 1.76-3.71 1.78-3.8-.04-.02-3.39-1.36-3.42-5.42z" fill="#fff"/><path d="M26.82 11.29c.88-1.14 1.47-2.71 1.31-4.29-1.27.06-2.85.92-3.76 2.04-.81.99-1.53 2.61-1.34 4.14 1.42.11 2.88-.76 3.79-1.89zM53.24 32.97h-2.28l-1.24-4.1H45.4l-1.19 4.1H42L46.28 19h2.65zm-5.02-9.47c-.12-.37-.34-1.25-.67-2.63h-.04c-.13.59-.34 1.47-.63 2.63l-1.11 3.65h3.58zM64.24 28.12c0 1.71-.44 3.07-1.32 4.06-.79.89-1.77 1.33-2.94 1.33-1.27 0-2.18-.48-2.73-1.43h-.04v5.31h-2.13V26.52c0-1.07-.03-2.18-.08-3.31h1.88l.11 1.59h.04c.72-1.2 1.79-1.8 3.24-1.8 1.13 0 2.08.47 2.84 1.41.75.94 1.13 2.18 1.13 3.71zm-2.17.08c0-.98-.21-1.79-.63-2.42-.46-.67-1.08-1-1.86-1-.52 0-1 .19-1.43.55-.43.37-.71.85-.84 1.44-.06.28-.1.51-.1.69v1.68c0 .73.22 1.35.64 1.85.43.51.99.76 1.67.76.81 0 1.43-.33 1.88-.98.45-.65.67-1.5.67-2.57zM75.24 28.12c0 1.71-.44 3.07-1.32 4.06-.79.89-1.77 1.33-2.94 1.33-1.27 0-2.18-.48-2.73-1.43h-.04v5.31h-2.13V26.52c0-1.07-.03-2.18-.08-3.31h1.88l.11 1.59h.04c.71-1.2 1.79-1.8 3.24-1.8 1.13 0 2.08.47 2.84 1.41.75.94 1.13 2.18 1.13 3.71zm-2.17.08c0-.98-.21-1.79-.63-2.42-.47-.67-1.08-1-1.86-1-.53 0-1 .19-1.43.55-.43.37-.71.85-.84 1.44-.06.28-.1.51-.1.69v1.68c0 .73.22 1.35.64 1.85.43.51.99.76 1.67.76.8 0 1.43-.33 1.88-.98.44-.65.67-1.5.67-2.57zM88.26 29.26c0 1.19-.4 2.16-1.19 2.9-.86.82-2.07 1.23-3.62 1.23-1.43 0-2.58-.29-3.45-.88l.49-1.86c.94.59 1.97.89 3.09.89.8 0 1.42-.19 1.87-.57.45-.38.67-.89.67-1.53 0-.56-.18-1.04-.55-1.43-.37-.39-.98-.75-1.84-1.08-2.33-.91-3.49-2.25-3.49-4.01 0-1.14.41-2.09 1.23-2.82.81-.73 1.9-1.1 3.25-1.1 1.21 0 2.22.22 3.02.66l-.53 1.83c-.75-.43-1.6-.64-2.55-.64-.75 0-1.33.19-1.75.58-.36.34-.54.76-.54 1.26 0 .55.21 1.01.62 1.37.35.33 1 .69 1.93 1.08 1.15.48 1.99 1.05 2.53 1.7.54.64.81 1.45.81 2.42zM94.84 24.19h-2.35v4.89c0 1.25.42 1.87 1.25 1.87.38 0 .7-.04.95-.11l.05 1.7c-.42.17-.97.25-1.65.25-.85 0-1.5-.27-1.98-.81-.47-.54-.71-1.44-.71-2.71v-5.08H89v-1.68h1.4v-1.85l2.09-.66v2.51h2.35zM105.4 28.16c0 1.55-.42 2.82-1.26 3.82-.89 1.02-2.06 1.53-3.52 1.53-1.41 0-2.53-.49-3.37-1.47-.83-.98-1.25-2.22-1.25-3.71 0-1.56.43-2.84 1.29-3.84.86-.99 2.03-1.49 3.49-1.49 1.41 0 2.54.49 3.39 1.47.82.95 1.23 2.18 1.23 3.69zm-2.21.07c0-.93-.19-1.72-.57-2.39-.45-.8-1.09-1.2-1.92-1.2-.86 0-1.51.4-1.95 1.2-.39.67-.58 1.48-.58 2.44 0 .92.19 1.72.58 2.39.46.8 1.1 1.2 1.93 1.2.82 0 1.46-.41 1.92-1.23.39-.67.59-1.48.59-2.41zM112.13 25.18a2.87 2.87 0 0 0-.67-.07c-.75 0-1.33.3-1.74.9-.35.52-.53 1.18-.53 1.99v5.28h-2.13l.02-6.9c0-1.16-.03-2.22-.08-3.17h1.86l.08 1.93h.05c.23-.67.58-1.2 1.07-1.6.48-.36.99-.54 1.54-.54.2 0 .38.01.53.04zM122.53 27.79c0 .4-.03.74-.08 1.01h-6.4c.03 1 .34 1.76.93 2.28.54.47 1.24.71 2.09.71.95 0 1.82-.16 2.59-.48l.34 1.56c-.91.41-1.98.62-3.22.62-1.49 0-2.66-.46-3.51-1.38-.84-.92-1.27-2.15-1.27-3.7 0-1.52.4-2.78 1.19-3.79.82-1.08 1.94-1.62 3.35-1.62 1.38 0 2.43.54 3.14 1.62.57.85.85 1.91.85 3.17zm-2.45-2.3c-.37-.63-.93-.94-1.7-.94-.69 0-1.26.31-1.69.91-.36.49-.57 1.07-.64 1.75h4.45c.01-.67-.13-1.24-.42-1.72zM49.37 10.32c0 1.24-.35 2.17-1.05 2.79-.66.58-1.58.87-2.79.87-.59 0-1.1-.03-1.53-.08V7.14c.56-.09 1.16-.14 1.81-.14 1.14 0 2 .26 2.59.78.65.6.97 1.44.97 2.54zm-1.1.03c0-.8-.2-1.41-.61-1.84-.4-.43-.99-.64-1.77-.64-.33 0-.61.02-.84.07v5.13c.13.02.36.03.71.03.8 0 1.42-.23 1.85-.7.44-.47.66-1.15.66-2.05zM54.62 11.53c0 .77-.21 1.39-.62 1.88-.44.5-1.01.75-1.73.75-.69 0-1.24-.24-1.65-.72-.41-.48-.62-1.09-.62-1.82 0-.77.21-1.4.64-1.89.42-.49.99-.73 1.71-.73.69 0 1.25.24 1.67.72.4.47.6 1.08.6 1.81zm-1.09.04c0-.46-.09-.85-.28-1.17-.22-.4-.53-.6-.94-.6-.42 0-.74.2-.96.6-.19.32-.28.72-.28 1.19 0 .46.09.85.28 1.18.23.39.54.59.95.59.4 0 .71-.2.94-.61.19-.33.29-.72.29-1.18zM62.83 9l-1.47 4.95h-.96l-.62-2.15c-.15-.54-.28-1.07-.37-1.6h-.02c-.09.55-.22 1.08-.38 1.6l-.65 2.15h-.97L56 9h1.08l.53 2.35c.13.56.24 1.09.32 1.59h.02c.08-.41.21-.94.39-1.58L59.01 9h.85l.64 2.31c.16.57.28 1.11.38 1.63h.03c.07-.51.18-1.05.32-1.63L61.8 9zM68.13 14.05h-1.05v-2.83c0-.87-.31-1.31-.95-1.31a.91.91 0 0 0-.75.36c-.2.24-.29.52-.29.85v2.93h-1.05v-3.53c0-.44-.01-.91-.04-1.42h.92l.05.78H65c.12-.24.3-.44.54-.6.29-.19.6-.28.95-.28.44 0 .81.15 1.1.45.36.36.54.91.54 1.64zM71.05 14.22H70V7h1.05zM77.62 11.53c0 .77-.21 1.39-.62 1.88-.44.5-1.01.75-1.73.75-.69 0-1.24-.24-1.65-.72-.41-.48-.62-1.09-.62-1.82 0-.77.21-1.4.64-1.89.42-.49.99-.73 1.71-.73.69 0 1.24.24 1.67.72.4.47.6 1.08.6 1.81zm-1.09.04c0-.46-.09-.85-.28-1.17-.22-.4-.53-.6-.94-.6-.42 0-.74.2-.96.6-.19.32-.28.72-.28 1.19 0 .46.09.85.28 1.18.23.39.54.59.95.59.4 0 .71-.2.94-.61.19-.33.29-.72.29-1.18zM81.87 14.05h-.94l-.08-.57h-.03c-.32.46-.78.68-1.37.68-.45 0-.81-.15-1.08-.45-.25-.27-.37-.6-.37-1 0-.61.24-1.07.72-1.39.49-.32 1.16-.47 2.04-.47v-.09c0-.65-.33-.98-.98-.98-.47 0-.88.13-1.23.37l-.21-.72c.43-.29.97-.43 1.61-.43 1.23 0 1.85.68 1.85 2.05v1.82c0 .49.03.89.07 1.18zm-1.09-1.7v-.76c-1.15-.02-1.73.31-1.73.99 0 .26.06.46.2.58.13.13.31.2.51.2.23 0 .45-.08.64-.23.2-.15.32-.35.37-.59l.01-.19zM88.5 14.22h-.93l-.05-.79h-.03c-.29.6-.8.9-1.51.9-.57 0-1.04-.23-1.42-.7-.37-.47-.56-1.08-.56-1.82 0-.8.2-1.45.61-1.95.4-.46.88-.69 1.46-.69.63 0 1.07.22 1.32.67h.02V7h1.05v5.89c0 .48.02.92.04 1.33zm-1.09-2.09v-.82l-.02-.35c-.06-.26-.19-.49-.38-.67-.2-.17-.43-.26-.7-.26-.4 0-.7.16-.93.48-.22.33-.33.75-.33 1.26 0 .49.1.88.32 1.19.23.32.53.49.92.49.34 0 .61-.14.82-.41.21-.25.3-.55.3-.91zM97.62 11.53c0 .77-.21 1.39-.62 1.88-.44.5-1.01.75-1.73.75-.69 0-1.24-.24-1.65-.72-.41-.48-.62-1.09-.62-1.82 0-.77.21-1.4.64-1.89.42-.49.99-.73 1.71-.73.69 0 1.25.24 1.67.72.4.47.6 1.08.6 1.81zm-1.09.04c0-.46-.09-.85-.28-1.17-.22-.4-.53-.6-.94-.6-.42 0-.74.2-.96.6-.19.32-.28.72-.28 1.19 0 .46.09.85.28 1.18.23.39.54.59.95.59.4 0 .71-.2.94-.61.19-.33.29-.72.29-1.18zM103.13 14.05h-1.05v-2.83c0-.87-.31-1.31-.95-1.31a.91.91 0 0 0-.75.36c-.2.24-.29.52-.29.85v2.93h-1.05v-3.53c0-.44-.01-.91-.04-1.42h.92l.05.78h.03c.12-.24.3-.44.54-.6.29-.19.6-.28.95-.28.44 0 .81.15 1.1.45.36.36.54.91.54 1.64zM109.87 10.06h-1.15v2.4c0 .61.2.92.61.92.19 0 .34-.02.47-.05l.02.83c-.2.08-.48.12-.81.12-.42 0-.74-.13-.97-.39-.23-.27-.35-.71-.35-1.34v-2.49H107v-.83h.69v-.9l1.03-.33v1.23h1.15zM115.09 14.22h-1.04v-2.81c0-.89-.32-1.33-.95-1.33-.49 0-.82.25-1 .77-.03.11-.05.24-.05.39v2.98H111V7h1.05v2.98h.02c.33-.54.8-.81 1.41-.81.44 0 .8.15 1.08.45.36.37.53.92.53 1.66zM121.19 11.35c0 .2-.01.36-.04.5h-3.14c.01.49.16.86.45 1.12.27.23.61.35 1.03.35.47 0 .89-.08 1.27-.24l.17.77c-.45.2-.97.3-1.58.3-.73 0-1.31-.22-1.72-.67-.42-.46-.63-1.06-.63-1.82 0-.75.19-1.37.58-1.87.41-.53.96-.79 1.65-.79.68 0 1.19.26 1.54.79.28.42.42.94.42 1.56zm-1-.28c.01-.33-.06-.61-.2-.85-.18-.3-.46-.46-.84-.46-.34 0-.62.15-.83.45-.17.24-.28.52-.31.86z" fill="#fff"/></symbol><symbol viewBox="0 0 20.16 18" id="shape-arrow-right" xmlns="http://www.w3.org/2000/svg"><path fill="none" d="M12 1l6.71 7.84L12 16.69m6.18-8.14H1.26"/></symbol><symbol viewBox="0 0 40 40" id="shape-darek" xmlns="http://www.w3.org/2000/svg"><path d="M37.5 10h-35A2.5 2.5 0 0 0 0 12.5V20h2.5v17.5A2.5 2.5 0 0 0 5 40h30a2.5 2.5 0 0 0 2.5-2.5V20H40v-7.5a2.5 2.5 0 0 0-2.5-2.5zm-35 2.5h15v5h-15v-5zm2.5 25V20h12.5v17.5H5zm30 0H22.552V20H35v17.5zm2.5-20H22.552v-5H37.5v5zM20 7.5l-.002-.02h.007L20 7.5h10c3.453 0 5-1.68 5-3.75C35 1.68 33.453 0 30 0c-3.233 0-5.778 1.455-7.5 3.143a5.026 5.026 0 0 0-2.573-.72c-.905 0-1.742.255-2.477.67C15.73 1.425 13.2.001 10 .001c-3.453 0-5 1.68-5 3.75 0 2.07 1.547 3.75 5 3.75h10zm12.5-3.75C32.5 4.783 31.14 5 30 5h-5.677l-.058-.105C25.535 3.66 27.46 2.5 30 2.5c1.14 0 2.5.217 2.5 1.25zm-25 0C7.5 2.717 8.86 2.5 10 2.5c2.485 0 4.37 1.112 5.64 2.305L15.532 5H10c-1.14 0-2.5-.217-2.5-1.25z"/></symbol><symbol viewBox="0 0 40 47" id="shape-globus" xmlns="http://www.w3.org/2000/svg"><path d="M37.284 31.221c-7.858 7.855-20.645 7.861-28.503 0-3.803-3.801-5.896-8.862-5.896-14.253S4.98 6.516 8.778 2.718a1.443 1.443 0 0 0-2.04-2.04C2.392 5.021 0 10.807 0 16.968s2.395 11.95 6.738 16.293c3.668 3.671 8.279 5.815 13.061 6.487v3.538H15.47a1.444 1.444 0 0 0 0 2.886h11.543a1.444 1.444 0 0 0 0-2.886h-4.329v-3.301l.346.017c5.899 0 11.8-2.245 16.293-6.738a1.443 1.443 0 0 0-2.04-2.043zM23.031 0C13.658 0 6.063 7.598 6.063 16.968c0 9.37 7.598 16.968 16.968 16.968 9.37 0 16.968-7.595 16.968-16.968C39.999 7.595 32.401 0 23.031 0zm0 31.051c-7.766 0-14.083-6.317-14.083-14.083S15.265 2.885 23.031 2.885s14.083 6.317 14.083 14.083-6.317 14.083-14.083 14.083z"/></symbol><symbol viewBox="0 0 138.6 40.6" id="shape-googleplay" xmlns="http://www.w3.org/2000/svg"><style>.est0{fill:#a6a6a6}.est1{stroke:#fff;stroke-width:.625}.est1,.est2{fill:#fff}.est3{fill:url(#epath64_1_)}.est4{fill:url(#epath78_1_)}.est5{fill:url(#epath88_1_)}.est6{fill:url(#epath104_1_)}</style><g id="egoogleplay"><path id="epath14" d="M133.5 40.6H5.1c-2.8 0-5.1-2.3-5.1-5.1V5.1C0 2.3 2.3 0 5.1 0h128.4c2.8 0 5.1 2.3 5.1 5.1v30.4c0 2.8-2.3 5.1-5.1 5.1z"/><path id="epath16" class="est0" d="M133.5.8c2.4 0 4.3 1.9 4.3 4.3v30.4c0 2.3-1.9 4.3-4.3 4.3H5.1c-2.4 0-4.3-1.9-4.3-4.3V5.1C.8 2.8 2.7.8 5.1.8h128.4zm0-.8H5.1C2.3 0 0 2.3 0 5.1v30.4c0 2.8 2.3 5.1 5.1 5.1h128.4c2.8 0 5.1-2.3 5.1-5.1V5.1c0-2.8-2.3-5.1-5.1-5.1z"/><path id="epath20" class="est1" d="M48.682 10.418c0 .8-.3 1.5-.8 2-.6.6-1.3.9-2.3.9-.9 0-1.6-.3-2.3-.9-.6-.6-.9-1.4-.9-2.3s.3-1.7.9-2.3c.6-.6 1.4-.9 2.3-.9.4 0 .9.1 1.3.3.4.2.7.4 1 .7l-.5.5c-.4-.5-1-.7-1.7-.7-.6 0-1.2.2-1.7.7-.5.5-.7 1-.7 1.8s.2 1.3.7 1.8c.5.4 1 .7 1.7.7s1.3-.2 1.7-.7c.3-.3.5-.7.5-1.2h-2.2v-.7h3v.3z"/><path id="epath24" class="est1" d="M53.399 7.818h-2.8v2h2.5v.7h-2.5v1.9h2.8v.8h-3.6v-6.1h3.6z"/><path id="epath28" class="est1" d="M56.734 13.218h-.8v-5.4h-1.7v-.7h4.2v.7h-1.7z"/><path id="epath32" class="est1" d="M61.551 13.218v-6.1h.8v6.1z"/><path id="epath36" class="est1" d="M65.819 13.218h-.8v-5.4h-1.7v-.7h4.3v.7h-1.8z"/><path id="epath40" class="est1" d="M75.536 12.418c-.6.6-1.4.9-2.3.9-.9 0-1.7-.3-2.3-.9-.6-.6-.9-1.4-.9-2.3s.3-1.6.9-2.3c.6-.6 1.4-.9 2.3-.9.9 0 1.6.3 2.3.9.6.6.9 1.4.9 2.3.1.9-.2 1.7-.9 2.3zm-3.9-.5c.5.5 1 .7 1.7.7s1.2-.2 1.7-.7c.5-.5.7-1 .7-1.7s-.2-1.3-.7-1.7c-.5-.5-1-.7-1.7-.7s-1.2.2-1.7.7c-.5.5-.7 1-.7 1.7 0 .6.3 1.2.7 1.7z"/><path id="epath44" class="est1" d="M77.638 13.218v-6.1h.9l3 4.7h.1l-.1-1.1v-3.6h.8v6.1h-.8l-3.1-5h-.1l.1 1.2v3.8z"/><path id="epath46" class="est2" d="M70 22.1c-2.4 0-4.4 1.8-4.4 4.3s2 4.3 4.4 4.3c2.4 0 4.4-1.8 4.4-4.3s-2-4.3-4.4-4.3zm0 6.9c-1.3 0-2.5-1.1-2.5-2.6 0-1.6 1.1-2.6 2.5-2.6s2.5 1.1 2.5 2.6c-.1 1.5-1.2 2.6-2.5 2.6zm-9.6-6.9c-2.4 0-4.4 1.8-4.4 4.3s2 4.3 4.4 4.3c2.4 0 4.4-1.8 4.4-4.3s-2-4.3-4.4-4.3zm0 6.9c-1.3 0-2.5-1.1-2.5-2.6 0-1.6 1.1-2.6 2.5-2.6 1.3 0 2.5 1.1 2.5 2.6S61.7 29 60.4 29zM49 23.4v1.8h4.4c-.1 1-.5 1.8-1 2.3-.6.6-1.7 1.3-3.4 1.3-2.7 0-4.9-2.2-4.9-4.9S46.2 19 49 19c1.5 0 2.5.6 3.3 1.3l1.3-1.3c-1.1-1-2.6-1.8-4.6-1.8-3.7 0-6.9 3-6.9 6.7s3.1 6.7 6.9 6.7c2 0 3.5-.7 4.7-1.9 1.2-1.2 1.6-2.9 1.6-4.3 0-.4 0-.8-.1-1.1H49zm46.5 1.4c-.4-1-1.5-2.7-3.7-2.7s-4.1 1.7-4.1 4.3c0 2.4 1.9 4.3 4.3 4.3 2 0 3.2-1.2 3.6-1.9l-1.5-1c-.5.7-1.2 1.2-2.2 1.2-1 0-1.7-.4-2.1-1.3l5.8-2.4-.1-.5zm-5.9 1.5c-.1-1.7 1.3-2.5 2.3-2.5.8 0 1.4.4 1.6.9l-3.9 1.6zm-4.8 4.1h1.9V17.7h-1.9v12.7zM81.7 23c-.5-.5-1.3-1-2.4-1-2.2 0-4.2 1.9-4.2 4.3s2 4.3 4.2 4.3c1 0 1.9-.5 2.3-1h.1v.6c0 1.7-.9 2.5-2.3 2.5-1.2 0-1.9-.8-2.2-1.5l-1.7.7c.5 1.1 1.8 2.6 3.9 2.6 2.3 0 4.2-1.3 4.2-4.5v-7.8h-1.8v.8h-.1zm-2.2 6c-1.3 0-2.4-1.1-2.4-2.6s1.1-2.6 2.4-2.6c1.3 0 2.3 1.1 2.3 2.6s-1 2.6-2.3 2.6zm25-11.2h-4.6v12.7h1.9v-4.8h2.7c2.1 0 4.2-1.5 4.2-3.9.1-2.5-2-4-4.2-4zm.1 6.1h-2.7v-4.4h2.7c1.4 0 2.2 1.2 2.2 2.2 0 1-.8 2.2-2.2 2.2zm11.8-1.8c-1.4 0-2.8.6-3.4 1.9l1.7.7c.4-.7 1-.9 1.7-.9 1 0 2 .6 2 1.6v.1c-.3-.2-1.1-.5-2-.5-1.8 0-3.7 1-3.7 2.9 0 1.7 1.5 2.8 3.2 2.8 1.3 0 2-.6 2.4-1.2h.1v1h1.8v-4.9c.1-2.3-1.6-3.5-3.8-3.5zm-.2 6.9c-.6 0-1.5-.3-1.5-1.1 0-1 1.1-1.4 2-1.4.8 0 1.2.2 1.8.4-.2 1.3-1.2 2.1-2.3 2.1zm10.9-6.7l-2.2 5.5h-.1l-2.3-5.5h-2.1l3.4 7.7-2 4.3h2l5.3-12h-2zm-17.3 8.1h1.9V17.7h-1.9v12.7z"/><g id="eg48" transform="matrix(1 0 0 -1 925.009 2014.728)"><linearGradient id="epath64_1_" gradientUnits="userSpaceOnUse" x1="-1490.02" y1="1595.023" x2="-1491.318" y2="1595.692" gradientTransform="matrix(13.276 0 0 25.441 18878.537 -38595.766)"><stop offset="0" stop-color="#00A0FF"/><stop offset=".007" stop-color="#00A1FF"/><stop offset=".26" stop-color="#00BEFF"/><stop offset=".512" stop-color="#00D2FF"/><stop offset=".76" stop-color="#00DFFF"/><stop offset="1" stop-color="#00E3FF"/></linearGradient><path id="epath64" class="est3" d="M-914.3 2007.1c-.3-.3-.5-.8-.5-1.4v-22.4c0-.6.2-1.1.5-1.4l.1-.1 12.7 12.6v.3l-12.8 12.4z"/></g><g id="eg66" transform="matrix(1 0 0 -1 939.128 2005.848)"><linearGradient id="epath78_1_" gradientUnits="userSpaceOnUse" x1="-1491.435" y1="1559.129" x2="-1493.816" y2="1559.129" gradientTransform="matrix(10.436 0 0 8.682 14660.58 -11551.454)"><stop offset="0" stop-color="#FFE000"/><stop offset=".409" stop-color="#FFBD00"/><stop offset=".775" stop-color="#FFA500"/><stop offset="1" stop-color="#FF9C00"/></linearGradient><path id="epath78" class="est4" d="M-911.4 1981.2l-4.2 4.2v.3l4.2 4.2.1-.1 5-2.8c1.4-.8 1.4-2.1 0-2.9l-5-2.8-.1-.1z"/></g><g id="eg80" transform="matrix(1 0 0 -1 926.293 2014.727)"><linearGradient id="epath88_1_" gradientUnits="userSpaceOnUse" x1="-1502.37" y1="1582.167" x2="-1503.733" y2="1583.936" gradientTransform="matrix(17.137 0 0 13.054 24834.092 -18663.389)"><stop offset="0" stop-color="#FF3A44"/><stop offset="1" stop-color="#C31162"/></linearGradient><path id="epath88" class="est5" d="M-898.4 1990.1l-4.3 4.3-12.8-12.7c.5-.5 1.3-.6 2.1-.1l15 8.5"/></g><g id="eg90" transform="matrix(1 0 0 -1 926.293 2000.772)"><linearGradient id="epath104_1_" gradientUnits="userSpaceOnUse" x1="-1503.42" y1="1566.449" x2="-1502.811" y2="1567.24" gradientTransform="matrix(17.137 0 0 13.05 24834.092 -18475.238)"><stop offset="0" stop-color="#32A071"/><stop offset=".069" stop-color="#2DA771"/><stop offset=".476" stop-color="#15CF74"/><stop offset=".801" stop-color="#06E775"/><stop offset="1" stop-color="#00F076"/></linearGradient><path id="epath104" class="est6" d="M-898.4 1984.8l-15 8.4c-.9.5-1.7.4-2.1-.1l12.8-12.6 4.3 4.3z"/></g></g></symbol><symbol viewBox="0 0 24 24" id="shape-icon-facebook" xmlns="http://www.w3.org/2000/svg"><path d="M0 3a3 3 0 0 1 3-3h18a3 3 0 0 1 3 3v18a3 3 0 0 1-3 3H3a3 3 0 0 1-3-3z"/><path fill="#fff" d="M13.2 4a4.2 4.2 0 0 0-1.65.3c-1.22.5-1.84 1.66-1.84 3.47v1.77H8v2.95h1.71V21h3.49v-8.51h2.37l.32-2.95H13.2V8.2c0-.41.04-.71.14-.88.15-.26.45-.39.92-.39h1.59V4z"/></symbol><symbol viewBox="0 0 20 32" id="shape-icon-profile" xmlns="http://www.w3.org/2000/svg"><path d="M10 0C6.79 0 4 2.79 4 6s2.79 6 6 6 6-2.79 6-6-2.79-6-6-6zm0 14c5.26 0 10 5.67 10 12.72 0 7.04-20 7.04-20 0C0 19.67 4.74 14 10 14z" fill="#fff"/></symbol><symbol viewBox="0 0 282 551" enable-background="new 0 0 282 551" id="shape-iphone" xmlns="http://www.w3.org/2000/svg"><style>.hst0{filter:url(#hfilter-1)}.hst1{fill:#fff}.hst2,.hst3{fill:none;stroke:#000;stroke-width:1.5}.hst3{stroke-linecap:round;stroke-linejoin:round}</style><filter filterUnits="objectBoundingBox" height="200%" id="hfilter-1" width="200%" x="-50%" y="-50%"><feOffset dy="12" in="SourceAlpha" result="shadowOffsetOuter1"/><feGaussianBlur in="shadowOffsetOuter1" result="shadowBlurOuter1" stdDeviation="15"/><feColorMatrix in="shadowBlurOuter1" result="shadowMatrixOuter1" values="0 0 0 0 0 0 0 0 0 0 0 0 0 0 0 0 0 0 0.08 0"/><feMerge><feMergeNode in="shadowMatrixOuter1"/><feMergeNode in="SourceGraphic"/></feMerge></filter><title>iphone</title><g id="hiOS-Design_1_" transform="translate(30 18)" class="hst0"><path id="hOutline_1_" class="hst1" d="M-5-18h232c13.8 0 25 11.2 25 25v501c0 13.8-11.2 25-25 25H-5c-13.8 0-25-11.2-25-25V7c0-13.8 11.2-25 25-25z"/><ellipse id="hHome-Button_1_" class="hst2" cx="109.4" cy="505" rx="19.1" ry="18.4"/><path id="hSpeaker-Top_1_" class="hst3" d="M94.2 2h51.3"/><path id="hCamera_1_" class="hst2" d="M76.7 6c2.7 0 5-2.2 5-4.8s-2.2-4.8-5-4.8-5 2.2-5 4.8S74 6 76.7 6z"/></g></symbol><symbol viewBox="0 0 40 30" id="shape-karta" xmlns="http://www.w3.org/2000/svg"><path d="M37.5 0h-35A2.5 2.5 0 0 0 0 2.5v25A2.5 2.5 0 0 0 2.5 30h35a2.5 2.5 0 0 0 2.5-2.5v-25A2.5 2.5 0 0 0 37.5 0zm0 27.5h-35v-15h35v15zM2.5 7.605V2.5h35v5.105h-35zM6.25 25h12.5a1.25 1.25 0 0 0 0-2.5H6.25a1.25 1.25 0 0 0 0 2.5zm16.25-1.25a1.25 1.25 0 1 0 2.5 0 1.25 1.25 0 0 0-2.5 0zm5 0a1.25 1.25 0 1 0 2.5 0 1.25 1.25 0 0 0-2.5 0zm5 0a1.25 1.25 0 1 0 2.501 0 1.25 1.25 0 0 0-2.501 0z"/></symbol><symbol viewBox="0 0 50 38" id="shape-kolo" xmlns="http://www.w3.org/2000/svg"><path d="M26.468 24.526c-.201-.484-5.019-11.856-14.157-11.856-6.092 0-11.153 4.511-12.141 10.412l1.653 1.601 1.759-1.704c.974-3.977 4.513-6.937 8.73-6.937 5.861 0 9.718 6.942 10.791 9.137-1.072 2.194-4.93 9.137-10.791 9.137-4.758 0-8.654-3.763-8.973-8.509l-1.515 1.469-1.823-1.767c.173 6.745 5.623 12.179 12.311 12.179 9.137 0 13.956-11.372 14.157-11.856l.008-.653-.008-.653z"/><path d="M47.953 26.019l-1.873 1.816c-1.124 3.746-4.558 6.481-8.615 6.481-5.861 0-9.718-6.942-10.791-9.137 1.072-2.194 4.93-9.137 10.791-9.137 4.866 0 8.833 3.938 8.99 8.836l1.498-1.453 1.838 1.782.001-.029c0-6.897-5.53-12.509-12.328-12.509-9.137 0-13.956 11.372-14.157 11.856l.033.653-.033.653c.201.485 5.019 11.856 14.157 11.856 5.99 0 10.99-4.358 12.095-10.112l-1.606-1.557z"/><path d="M37.92 26.114a.926.926 0 0 1-.821-.504c-.072-.137-7.222-13.741-21.203-13.741l-.25.001a.934.934 0 0 1-.924-.928.931.931 0 0 1 .915-.946l.261-.001c15.118 0 22.764 14.604 22.841 14.752a.942.942 0 0 1-.393 1.262.916.916 0 0 1-.425.104"/><path d="M12.312 26.117l-.215-.026a.936.936 0 0 1-.684-1.128l5.426-23.089h-3.796c-.614 0-1.113.505-1.113 1.128 0 .621.499 1.128 1.113 1.128.509 0 .924.42.924.937a.93.93 0 0 1-.924.937c-1.631 0-2.96-1.347-2.96-3.002 0-1.655 1.329-3.002 2.96-3.002h6.135l-5.969 25.396a.926.926 0 0 1-.896.72"/><path d="M16.4 8.717h14.146V6.843H16.4z"/><path d="M28.006 14.459l-1.641-.857 6.43-12.68 1.641.857z"/><path d="M36.043 2.662H30.1c-.714 0-1.294-.587-1.294-1.311S29.386.04 30.1.04h5.943c.714 0 1.292.587 1.292 1.311s-.578 1.311-1.292 1.311"/></symbol><symbol viewBox="0 0 90 90" id="shape-logo-circle" xmlns="http://www.w3.org/2000/svg"><path d="M0 45C0 20.147 20.147 0 45 0s45 20.147 45 45-20.147 45-45 45S0 69.853 0 45z"/><path d="M0 45C0 20.147 20.147 0 45 0s45 20.147 45 45-20.147 45-45 45S0 69.853 0 45z" fill="none"/><path d="M46.64 49.99C46.42 49.46 41.02 37 30.79 37c-6.82 0-12.49 4.94-13.6 11.41l1.85 1.75 1.97-1.86a10.09 10.09 0 0 1 9.78-7.61c6.56 0 10.88 7.61 12.08 10.02-1.2 2.4-5.52 10.01-12.08 10.01-5.33 0-9.69-4.13-10.05-9.33L19.04 53 17 51.07c.19 7.39 6.3 13.34 13.79 13.34 10.23 0 15.63-12.46 15.85-12.99l.01-.71zm23.96 1.63l-2.1 1.99c-1.25 4.11-5.1 7.11-9.64 7.11-6.57 0-10.89-7.61-12.09-10.01 1.2-2.41 5.52-10.02 12.09-10.02 5.45 0 9.89 4.32 10.06 9.69l1.68-1.6 2.06 1.96v-.03c0-7.56-6.19-13.71-13.8-13.71C48.62 37 43.22 49.46 43 49.99l.04.72-.04.71c.22.53 5.62 12.99 15.86 12.99 6.7 0 12.3-4.77 13.54-11.08zm-11.62.04c-.37 0-.73-.2-.92-.55-.08-.15-8.09-15.06-23.75-15.06l-.28.01c-.56 0-1.02-.46-1.03-1.02-.01-.57.45-1.03 1.02-1.04h.3c16.93 0 25.49 16 25.58 16.16.26.51.06 1.12-.44 1.39-.15.07-.32.11-.48.11m-28.48-.04l-.24-.03c-.56-.13-.9-.69-.77-1.24l6.08-25.3h-4.26c-.68 0-1.24.56-1.24 1.24 0 .68.56 1.23 1.24 1.23a1.03 1.03 0 1 1 0 2.06c-1.82 0-3.31-1.48-3.31-3.29S29.49 23 31.31 23h6.88L31.5 50.83c-.11.47-.54.79-1 .79" fill="#fff"/><path d="M35 32.05h15.84V30H35zm13.84 6.78L47 37.89 54.2 24l1.84.94zm8.27-12.96h-6.66c-.8 0-1.45-.64-1.45-1.43 0-.8.65-1.44 1.45-1.44h6.66c.79 0 1.44.64 1.44 1.44 0 .79-.65 1.43-1.44 1.43" fill="#fff"/></symbol><symbol viewBox="0 0 84 36" id="shape-logo-text" xmlns="http://www.w3.org/2000/svg"><path d="M82.98 17.06h-4.99c-2.76 0-4.99 2.35-4.99 5.23v6.29c0 2.89 2.23 5.23 4.99 5.23 2.76 0 4.99-2.34 4.99-5.23V12.23c0-2.89-2.23-5.23-4.99-5.23C75.23 7 73 9.34 73 12.23m-59 8.65h5.01c2.77 0 5.02-2.35 5.02-5.26v-3.37c0-2.9-2.25-5.25-5.02-5.25C16.25 7 14 9.35 14 12.25v16.42c0 2.9 2.25 5.26 5.01 5.26 2.77 0 5.02-2.36 5.02-5.26M1 32.93V12.18C1 9.32 3.25 7 6.01 7c1.12 0 2.15.37 2.98 1.01M47 12.35C47 9.4 49.32 7 52.18 7c2.87 0 5.19 2.4 5.19 5.35v16.11c0 2.95-2.32 5.35-5.19 5.35-2.86 0-5.18-2.4-5.18-5.35z" stroke-linecap="round" stroke-miterlimit="50" stroke-width="2" fill="none"/><path d="M65 1v29.54c0 1.76.83 3.33 2.12 4.3" stroke-linejoin="round" stroke-linecap="round" stroke-miterlimit="50" stroke-width="2" fill="none"/><path d="M30 34.34V1m1 22.88L40.97 7M34 19l9.25 14.92" stroke-linecap="round" stroke-miterlimit="50" stroke-width="2" fill="none"/></symbol><symbol viewBox="0 0 40 37" id="shape-mapa" xmlns="http://www.w3.org/2000/svg"><path d="M0 0l12.587 3v33L0 33zM13.706 3l12.587-3v33l-12.587 3zM27.413 0L40 4v33l-12.587-4z"/></symbol><symbol viewBox="0 0 66 42" id="shape-mastercard" xmlns="http://www.w3.org/2000/svg"><path fill="#f9f9f9" d="M65.7 38.87c0 1.21-.98 2.19-2.19 2.19H2.19A2.19 2.19 0 0 1 0 38.87V2.19C0 .98.98 0 2.19 0h61.32c1.21 0 2.19.98 2.19 2.19v36.68"/><path d="M19.84 32.32c0-.72-.44-1.19-1.2-1.19-.38 0-.79.13-1.08.53a1.1 1.1 0 0 0-1.01-.53c-.32 0-.63.1-.89.44v-.38H15v3.02h.66v-1.67c0-.53.29-.78.73-.78.45 0 .67.28.67.78v1.67h.66v-1.67c0-.53.32-.78.73-.78.44 0 .67.28.67.78v1.67h.72zm8.78-1.13v-.91h-.67v.91h-.6v.6h.6v1.38c0 .69.29 1.1 1.05 1.1.28 0 .6-.09.82-.22l-.19-.56c-.19.12-.41.15-.57.15-.32 0-.44-.18-.44-.5v-1.35h1.07v-.6zm5.92.38v-.38h-.67v3.02h.67v-1.7c0-.5.22-.78.63-.78.13 0 .28.03.41.06l.19-.63c-.13-.03-.32-.03-.44-.03a.88.88 0 0 0-.79.44zm-8.96-.44c-.76 0-1.27.38-1.27.97 0 .51.38.79 1.04.88l.32.04c.35.06.54.15.54.31 0 .22-.25.38-.7.38-.44 0-.79-.16-1.01-.32l-.32.5c.35.26.83.38 1.3.38.89 0 1.39-.41 1.39-.97 0-.54-.41-.82-1.04-.91l-.32-.03c-.28-.04-.5-.1-.5-.29 0-.22.22-.34.57-.34.38 0 .76.15.95.25l.28-.54a2.27 2.27 0 0 0-1.23-.31zm18.11.44v-.38h-.67v3.02h.67v-1.7c0-.5.22-.78.63-.78.13 0 .29.03.41.06l.19-.63c-.12-.03-.31-.03-.44-.03a.9.9 0 0 0-.79.44zm-6.08 2.7c.44 0 .76-.09 1.07-.34l-.31-.54a1.3 1.3 0 0 1-.79.29c-.54 0-.92-.38-.92-.98 0-.56.38-.94.92-.97.28 0 .53.09.79.28l.31-.53a1.57 1.57 0 0 0-1.07-.35c-.98 0-1.62.66-1.62 1.57s.64 1.57 1.62 1.57zm4.53-3.08h-.67v.38a1.16 1.16 0 0 0-.95-.44c-.85 0-1.52.66-1.52 1.57s.67 1.57 1.52 1.57c.44 0 .76-.16.95-.44v.38h.67zm-1.52.54c.53 0 .91.41.91.97 0 .54-.38.98-.91.98a.94.94 0 0 1-.92-.98c0-.53.35-.97.92-.97zm-10.39.97c0 .94.63 1.57 1.55 1.57.44 0 .89-.12 1.24-.41l-.32-.47c-.25.19-.57.32-.89.32-.41 0-.82-.19-.92-.73h2.25v-.25c.03-.97-.54-1.6-1.39-1.6-.89 0-1.52.63-1.52 1.57zm2.28-.28h-1.58c.06-.41.34-.72.82-.72.41 0 .7.25.76.72zM48.25 30h-.67v1.57a1.16 1.16 0 0 0-.95-.44c-.85 0-1.52.66-1.52 1.57s.67 1.57 1.52 1.57c.44 0 .76-.16.95-.44v.38h.67zm-1.52 1.73c.53 0 .91.41.91.97 0 .54-.38.98-.91.98a.94.94 0 0 1-.92-.98c0-.53.35-.97.92-.97zm-23.15-.54h-.66v.38a1.17 1.17 0 0 0-.95-.44 1.5 1.5 0 0 0-1.52 1.57c0 .91.66 1.57 1.52 1.57.44 0 .76-.16.95-.44v.38h.66zm-2.47 1.51c0-.53.35-.97.92-.97.54 0 .92.41.92.97 0 .54-.38.98-.92.98a.94.94 0 0 1-.92-.98z"/><path fill="#ff5f00" d="M27 26V8h10v18z"/><path fill="#eb001b" d="M27.09 17.31a11.3 11.3 0 0 1 4.34-8.89A11.37 11.37 0 0 0 24.4 6C18.1 6 13 11.06 13 17.31c0 6.25 5.1 11.31 11.4 11.31 2.66 0 5.1-.92 7.03-2.42a11.26 11.26 0 0 1-4.34-8.89z"/><path fill="#f79e1b" d="M50.43 17.31c0 6.25-5.1 11.31-11.4 11.31-2.66 0-5.1-.92-7.03-2.42a11.3 11.3 0 0 0 0-17.78A11.37 11.37 0 0 1 39.03 6c6.3 0 11.4 5.09 11.4 11.31z"/></symbol><symbol viewBox="0 0 40 40" id="shape-nastaveni" xmlns="http://www.w3.org/2000/svg"><path d="M34.407 15.852a14.867 14.867 0 0 0-1.285-3.115l2.485-5.227a20.155 20.155 0 0 0-3.118-3.117l-5.227 2.485c-.975-.54-2.02-.97-3.115-1.285L22.202.128A19.99 19.99 0 0 0 19.999 0c-.745 0-1.48.048-2.203.128l-1.945 5.465a14.99 14.99 0 0 0-3.113 1.285l-5.23-2.485A20.243 20.243 0 0 0 4.39 7.51l2.485 5.227c-.54.975-.97 2.02-1.285 3.115L.125 17.797c-.08.722-.127 1.457-.127 2.202 0 .745.047 1.48.127 2.202l5.468 1.945a14.921 14.921 0 0 0 1.285 3.115l-2.485 5.227a20.067 20.067 0 0 0 3.118 3.117l5.227-2.485c.975.54 2.02.97 3.115 1.285l1.945 5.467c.72.077 1.455.125 2.2.125.745 0 1.48-.048 2.203-.128l1.945-5.467a14.845 14.845 0 0 0 3.115-1.285l5.227 2.485a20.074 20.074 0 0 0 3.118-3.118l-2.485-5.227c.54-.975.97-2.02 1.285-3.115l5.468-1.945c.078-.72.125-1.455.125-2.2 0-.745-.047-1.48-.127-2.202l-5.465-1.945zM20 30c-5.522 0-10-4.477-10-10s4.478-10 10-10 10 4.477 10 10-4.478 10-10 10zm-5-10a5 5 0 1 0 10.001-.001A5 5 0 0 0 15 20z"/></symbol><symbol viewBox="0 0 21 21" id="shape-plus" xmlns="http://www.w3.org/2000/svg"><path fill="#266db2" fill-rule="evenodd" d="M9 9H1c-.6 0-1 .4-1 1v1c0 .6.5 1 1 1h8v8c0 .6.4 1 1 1h1c.6 0 1-.4 1-1v-8h8c.6 0 1-.4 1-1v-1c0-.6-.4-1-1-1h-8V1c0-.6-.4-1-1-1h-1c-.6 0-1 .5-1 1v8zm0 0"/></symbol><symbol viewBox="0 0 66 42" id="shape-visa" xmlns="http://www.w3.org/2000/svg"><path fill="#f9f9f9" d="M65.7 38.87c0 1.21-.98 2.19-2.19 2.19H2.19A2.19 2.19 0 0 1 0 38.87V2.19C0 .98.98 0 2.19 0h61.32c1.21 0 2.19.98 2.19 2.19v36.68"/><path fill="#0066b2" d="M30.21 26.33H27L29.01 14h3.21l-2.01 12.33M24.14 14l-3.06 8.48-.36-1.83-1.08-5.54S19.51 14 18.12 14h-5.06l-.06.21s1.55.32 3.36 1.41l2.79 10.71h3.34L27.6 14h-3.46m21.8 7.97l1.69-4.62.94 4.62zm6.48 4.36L49.85 14h-2.58c-1.19 0-1.48.92-1.48.92L41 26.33h3.35l.66-1.83h4.08l.38 1.83zm-11.28-9.15l.46-2.64S40.18 14 38.71 14c-1.59 0-5.38.7-5.38 4.08 0 3.19 4.44 3.23 4.44 4.9 0 1.67-3.98 1.37-5.29.32L32 26.06s1.43.7 3.62.7c2.19 0 5.5-1.13 5.5-4.22 0-3.2-4.48-3.5-4.48-4.9 0-1.39 3.12-1.21 4.5-.46"/><path fill="#f9a533" d="M20.72 20.65l-1.08-5.54S19.51 14 18.12 14h-5.06l-.06.21s2.43.5 4.76 2.39a9.6 9.6 0 0 1 2.96 4.05"/></symbol></svg>